<?xml version="1.0" encoding="UTF-8"?>
<svg id="Layer_1" data-name="Layer 1" xmlns="http://www.w3.org/2000/svg" viewBox="0 0 304.88 323.42">
    <defs>
        <style>
            .cls-1 {
                fill: #2a9d8f;
            }

            .cls-2 {
                fill: #afd3ce;
            }
        </style>
    </defs>
    <g>
        <polygon class="cls-2"
            points="188.22 136.95 185.28 140.33 173.64 153.87 173.58 153.79 173.57 153.79 173.64 153.9 278.13 303.35 235.25 303.35 149.98 181.4 149.98 181.39 149.93 181.34 149.97 181.39 135.82 197.83 135.82 197.83 135.83 197.85 222.11 323.42 295.46 323.42 304.88 306.72 188.22 136.95" />
        <polygon class="cls-2" points="299.65 7.42 295.46 0 278.12 0 175.82 118.91 188.22 136.94 299.65 7.42" />
    </g>
    <polygon class="cls-1" points="188.22 136.95 94.17 .07 0 .07 123.55 179.88 .14 323.32 27.89 323.32 188.22 136.95" />
</svg>